<?xml version="1.0" encoding="UTF-8" standalone="no"?> <svg fill="#ffffff" xmlns="http://www.w3.org/2000/svg" viewBox="0 0 24 24"><title>shopping cart</title><g id="Layer_2" data-name="Layer 2"><path d="M21.29,6.81a2.2,2.2,0,0,0-1.65-.75H8.42a2.18,2.18,0,0,0-.62.1L7.23,2.83a1,1,0,0,0-1-.83H3A1,1,0,0,0,3,4H5.4L6.94,14a2.2,2.2,0,0,0,2.18,1.92h9.83A2.2,2.2,0,0,0,21.13,14l.7-5.48A2.2,2.2,0,0,0,21.29,6.81Zm-2.15,7a.2.2,0,0,1-.2.17H9.12a.2.2,0,0,1-.2-.17l-.7-5.48a.19.19,0,0,1,0-.16.19.19,0,0,1,.15-.07H19.64a.19.19,0,0,1,.15.07.19.19,0,0,1,0,.16Z"/><path d="M17.84,17a2.52,2.52,0,1,0,2.52,2.52A2.52,2.52,0,0,0,17.84,17Zm0,3a.52.52,0,1,1,.52-.52A.52.52,0,0,1,17.84,20Z"/><path d="M10.84,17a2.52,2.52,0,1,0,2.52,2.52A2.52,2.52,0,0,0,10.84,17Zm0,3a.52.52,0,1,1,.52-.52A.52.52,0,0,1,10.84,20Z"/></g></svg>