<?xml version="1.0" encoding="UTF-8" standalone="no"?> <svg fill="#ffffff" width="100" height="100" viewBox="0 0 100 100" fill="none" xmlns="http://www.w3.org/2000/svg">
<path d="M45.4617 25.8328C47.6106 23.7911 50.6527 23.0971 53.5357 23.0167C56.5787 22.99 59.6217 23.0033 62.6638 23.0033C62.6772 26.2196 62.6772 29.4224 62.6638 32.6387C60.7024 32.6387 58.7268 32.6387 56.7654 32.6387C55.5239 32.5583 54.2431 33.5059 54.0163 34.7474C53.9895 36.8963 54.0029 39.0444 54.0029 41.1933C56.8851 41.2067 59.7681 41.1933 62.6504 41.2067C62.4369 44.3157 62.0502 47.4123 61.5964 50.482C59.0474 50.5088 56.4983 50.482 53.9493 50.4954C53.9225 59.6636 53.9627 68.8184 53.9359 77.9874C50.1454 78.0008 46.3691 77.9741 42.5786 78.0008C42.5116 68.8326 42.5786 59.6644 42.5384 50.4954C40.6967 50.482 38.8417 50.5088 37 50.482C37.0134 47.3989 37 44.3166 37 41.2468C38.8417 41.22 40.6967 41.2468 42.5384 41.2334C42.592 38.2441 42.4848 35.2413 42.592 32.2519C42.7929 29.8636 43.687 27.4744 45.4617 25.8328Z" fill="black"/>
</svg>
