<?xml version="1.0" encoding="UTF-8" standalone="no"?> <svg fill="#ffffff" width="100" height="100" viewBox="0 0 100 100" fill="none" xmlns="http://www.w3.org/2000/svg">
<path fill-rule="evenodd" clip-rule="evenodd" d="M60.6082 25H39.3918C31.4566 25 25 31.4558 25 39.3918V60.8028C25 68.738 31.4558 75.1946 39.3918 75.1946H60.6082C68.5442 75.1946 75 68.738 75 60.8028V39.3918C75 31.4566 68.5442 25 60.6082 25ZM70.2371 60.8028C70.2371 66.1121 65.9174 70.4317 60.6082 70.4317H39.3918C34.0826 70.4317 29.7629 66.1121 29.7629 60.8028V39.3918C29.7629 34.0826 34.0826 29.7629 39.3918 29.7629H60.6082C65.9174 29.7629 70.2371 34.0826 70.2371 39.3918V60.8028ZM50.0397 37.0922C42.8438 37.0922 36.9883 42.8847 36.9883 50.0054C36.9883 57.1252 42.843 62.9177 50.0397 62.9177C57.2356 62.9177 63.0911 57.1252 63.0911 50.0054C63.0911 42.8847 57.2356 37.0922 50.0397 37.0922ZM50.0397 58.1638C45.4641 58.1638 41.7422 54.5033 41.7422 50.0054C41.7422 45.5066 45.4641 41.8469 50.0397 41.8469C54.6145 41.8469 58.3372 45.5066 58.3372 50.0054C58.3372 54.5041 54.6153 58.1638 50.0397 58.1638ZM66.3956 36.5646C66.3956 38.2606 65.0208 39.6355 63.3248 39.6355C61.6288 39.6355 60.2539 38.2606 60.2539 36.5646C60.2539 34.8687 61.6288 33.4938 63.3248 33.4938C65.0208 33.4938 66.3956 34.8687 66.3956 36.5646Z" fill="black"/>
</svg>
